<svg width="501" height="98" viewBox="0 0 501 98" fill="none" xmlns="http://www.w3.org/2000/svg">
<path d="M145.105 70L135.865 53.68H131.905V70H123.505V28.12H139.225C142.465 28.12 145.225 28.7 147.505 29.86C149.785 30.98 151.485 32.52 152.605 34.48C153.765 36.4 154.345 38.56 154.345 40.96C154.345 43.72 153.545 46.22 151.945 48.46C150.345 50.66 147.965 52.18 144.805 53.02L154.825 70H145.105ZM131.905 47.38H138.925C141.205 47.38 142.905 46.84 144.025 45.76C145.145 44.64 145.705 43.1 145.705 41.14C145.705 39.22 145.145 37.74 144.025 36.7C142.905 35.62 141.205 35.08 138.925 35.08H131.905V47.38ZM176.583 28.12C180.983 28.12 184.843 28.98 188.163 30.7C191.523 32.42 194.103 34.88 195.903 38.08C197.743 41.24 198.663 44.92 198.663 49.12C198.663 53.32 197.743 57 195.903 60.16C194.103 63.28 191.523 65.7 188.163 67.42C184.843 69.14 180.983 70 176.583 70H161.943V28.12H176.583ZM176.283 62.86C180.683 62.86 184.083 61.66 186.483 59.26C188.883 56.86 190.083 53.48 190.083 49.12C190.083 44.76 188.883 41.36 186.483 38.92C184.083 36.44 180.683 35.2 176.283 35.2H170.343V62.86H176.283ZM242.571 28.12L227.211 70H217.011L201.651 28.12H210.651L222.171 61.42L233.631 28.12H242.571ZM251.327 70.42C249.807 70.42 248.547 69.96 247.547 69.04C246.587 68.08 246.107 66.9 246.107 65.5C246.107 64.1 246.587 62.94 247.547 62.02C248.547 61.06 249.807 60.58 251.327 60.58C252.807 60.58 254.027 61.06 254.987 62.02C255.947 62.94 256.427 64.1 256.427 65.5C256.427 66.9 255.947 68.08 254.987 69.04C254.027 69.96 252.807 70.42 251.327 70.42ZM277.833 28.12C282.233 28.12 286.093 28.98 289.413 30.7C292.773 32.42 295.353 34.88 297.153 38.08C298.993 41.24 299.913 44.92 299.913 49.12C299.913 53.32 298.993 57 297.153 60.16C295.353 63.28 292.773 65.7 289.413 67.42C286.093 69.14 282.233 70 277.833 70H263.193V28.12H277.833ZM277.533 62.86C281.933 62.86 285.333 61.66 287.733 59.26C290.133 56.86 291.333 53.48 291.333 49.12C291.333 44.76 290.133 41.36 287.733 38.92C285.333 36.44 281.933 35.2 277.533 35.2H271.593V62.86H277.533ZM320.961 70.54C317.761 70.54 314.881 69.84 312.321 68.44C309.761 67 307.741 64.98 306.261 62.38C304.821 59.78 304.101 56.78 304.101 53.38C304.101 49.98 304.841 46.98 306.321 44.38C307.841 41.78 309.901 39.78 312.501 38.38C315.101 36.94 318.001 36.22 321.201 36.22C324.401 36.22 327.301 36.94 329.901 38.38C332.501 39.78 334.541 41.78 336.021 44.38C337.541 46.98 338.301 49.98 338.301 53.38C338.301 56.78 337.521 59.78 335.961 62.38C334.441 64.98 332.361 67 329.721 68.44C327.121 69.84 324.201 70.54 320.961 70.54ZM320.961 63.22C322.481 63.22 323.901 62.86 325.221 62.14C326.581 61.38 327.661 60.26 328.461 58.78C329.261 57.3 329.661 55.5 329.661 53.38C329.661 50.22 328.821 47.8 327.141 46.12C325.501 44.4 323.481 43.54 321.081 43.54C318.681 43.54 316.661 44.4 315.021 46.12C313.421 47.8 312.621 50.22 312.621 53.38C312.621 56.54 313.401 58.98 314.961 60.7C316.561 62.38 318.561 63.22 320.961 63.22ZM342.302 53.38C342.302 49.94 343.002 46.94 344.402 44.38C345.802 41.78 347.742 39.78 350.222 38.38C352.702 36.94 355.542 36.22 358.742 36.22C362.862 36.22 366.262 37.26 368.942 39.34C371.662 41.38 373.482 44.26 374.402 47.98H365.342C364.862 46.54 364.042 45.42 362.882 44.62C361.762 43.78 360.362 43.36 358.682 43.36C356.282 43.36 354.382 44.24 352.982 46C351.582 47.72 350.882 50.18 350.882 53.38C350.882 56.54 351.582 59 352.982 60.76C354.382 62.48 356.282 63.34 358.682 63.34C362.082 63.34 364.302 61.82 365.342 58.78H374.402C373.482 62.38 371.662 65.24 368.942 67.36C366.222 69.48 362.822 70.54 358.742 70.54C355.542 70.54 352.702 69.84 350.222 68.44C347.742 67 345.802 65 344.402 62.44C343.002 59.84 342.302 56.82 342.302 53.38ZM390.336 43.66V59.74C390.336 60.86 390.596 61.68 391.116 62.2C391.676 62.68 392.596 62.92 393.876 62.92H397.776V70H392.496C385.416 70 381.876 66.56 381.876 59.68V43.66H377.916V36.76H381.876V28.54H390.336V36.76H397.776V43.66H390.336ZM434.718 52.66C434.718 53.86 434.638 54.94 434.478 55.9H410.178C410.378 58.3 411.218 60.18 412.698 61.54C414.178 62.9 415.998 63.58 418.158 63.58C421.278 63.58 423.498 62.24 424.818 59.56H433.878C432.918 62.76 431.078 65.4 428.358 67.48C425.638 69.52 422.298 70.54 418.338 70.54C415.138 70.54 412.258 69.84 409.698 68.44C407.178 67 405.198 64.98 403.758 62.38C402.358 59.78 401.658 56.78 401.658 53.38C401.658 49.94 402.358 46.92 403.758 44.32C405.158 41.72 407.118 39.72 409.638 38.32C412.158 36.92 415.058 36.22 418.338 36.22C421.498 36.22 424.318 36.9 426.798 38.26C429.318 39.62 431.258 41.56 432.618 44.08C434.018 46.56 434.718 49.42 434.718 52.66ZM426.018 50.26C425.978 48.1 425.198 46.38 423.678 45.1C422.158 43.78 420.298 43.12 418.098 43.12C416.018 43.12 414.258 43.76 412.818 45.04C411.418 46.28 410.558 48.02 410.238 50.26H426.018ZM472.229 36.76V70H463.769V65.8C462.689 67.24 461.269 68.38 459.509 69.22C457.789 70.02 455.909 70.42 453.869 70.42C451.269 70.42 448.969 69.88 446.969 68.8C444.969 67.68 443.389 66.06 442.229 63.94C441.109 61.78 440.549 59.22 440.549 56.26V36.76H448.949V55.06C448.949 57.7 449.609 59.74 450.929 61.18C452.249 62.58 454.049 63.28 456.329 63.28C458.649 63.28 460.469 62.58 461.789 61.18C463.109 59.74 463.769 57.7 463.769 55.06V36.76H472.229ZM488.917 41.92C489.997 40.16 491.397 38.78 493.117 37.78C494.877 36.78 496.877 36.28 499.117 36.28V45.1H496.897C494.257 45.1 492.257 45.72 490.897 46.96C489.577 48.2 488.917 50.36 488.917 53.44V70H480.517V36.76H488.917V41.92Z" fill="url(#paint0_linear)"/>
<path d="M87.9008 3.74046H84.5403C84.6271 3.46217 84.7169 3.18388 84.7169 2.87566C84.7169 1.28672 83.4242 0 81.8352 0C80.2463 0 78.9596 1.28971 78.9596 2.87566C78.9596 3.18388 79.0434 3.46217 79.1361 3.74046H68.1242C68.211 3.46217 68.3008 3.18388 68.3008 2.87566C68.2978 1.28672 67.0081 0 65.4161 0C63.8332 0 62.5405 1.28971 62.5405 2.87566C62.5405 3.18388 62.6272 3.46217 62.72 3.74046H51.7051C51.7919 3.46217 51.8787 3.18388 51.8787 2.87566C51.8787 1.28672 50.5919 0 49.003 0C47.414 0 46.1273 1.28971 46.1273 2.87566C46.1273 3.18388 46.2111 3.46217 46.3009 3.74046H35.286C35.3728 3.46217 35.4625 3.18388 35.4625 2.87566C35.4625 1.28672 34.1728 0 32.5869 0C30.9979 0 29.7082 1.28971 29.7082 2.87566C29.7082 3.18388 29.792 3.46217 29.8818 3.74046H18.8699C18.9596 3.46217 19.0464 3.18388 19.0464 2.87566C19.0464 1.28672 17.7597 0 16.1708 0C14.5818 0 13.2921 1.28971 13.2921 2.87566C13.2921 3.18388 13.3759 3.46217 13.4657 3.74046H10.0992C5.55683 3.74046 1.87024 7.43005 1.87024 11.9695V89.771C1.87024 94.3134 5.55683 98 10.0992 98H78.6095L96.1298 80.4797V11.9695C96.1298 7.43304 92.4432 3.74046 87.9008 3.74046ZM91.6412 78.6184L90.7106 79.5491H83.6636C80.366 79.5491 77.6788 82.2422 77.6788 85.5338V92.5808L76.7482 93.5114H10.0992C8.03751 93.5114 6.35879 91.8327 6.35879 89.771V14.9618H91.6412V78.6184Z" fill="url(#paint1_linear)"/>
<path fill-rule="evenodd" clip-rule="evenodd" d="M34.9649 53.3789L38.2548 41.1052H41.1443L46.8431 62.4244L49.0069 54.5097L50.3736 53.3789H55.8313L59.1194 41.1052H62.0081L65.2993 53.3789H74.7674C75.4083 51.1985 75.8113 48.9372 75.8113 46.5973C75.8113 37.8779 69.0681 30.7689 60.8057 30.7689C56.4718 30.7689 52.5401 32.7068 49.8107 35.8587C47.0038 32.7068 43.0684 30.7689 38.7364 30.7689C30.4716 30.7689 23.6499 37.8779 23.6499 46.5973C23.6499 48.9372 24.1301 51.1985 24.7729 53.3789H34.9649" fill="#42A3AF"/>
<path fill-rule="evenodd" clip-rule="evenodd" d="M64.0965 56.3695H73.5673C67.2253 70.1742 49.8108 79.053 49.8108 79.053C49.813 79.053 32.3163 70.1742 25.978 56.3695H36.0883L37.534 55.315L39.6982 47.3236L45.397 68.6396H48.2852L51.5765 56.3695H56.9525L58.3946 55.315L60.4835 47.3236L62.6513 55.315L64.0965 56.3695Z" fill="#0096C6"/>
<defs>
<linearGradient id="paint0_linear" x1="204.349" y1="40.1856" x2="435.146" y2="60.2045" gradientUnits="userSpaceOnUse">
<stop stop-color="#0096C6"/>
<stop offset="1" stop-color="#42A3AF"/>
</linearGradient>
<linearGradient id="paint1_linear" x1="6.47172" y1="11.0943" x2="71.651" y2="82.283" gradientUnits="userSpaceOnUse">
<stop stop-color="#0096C6"/>
<stop offset="1" stop-color="#42A3AF"/>
</linearGradient>
</defs>
</svg>
