<svg width="461" height="311" viewBox="0 0 461 311" fill="none" xmlns="http://www.w3.org/2000/svg">
<path d="M32.6263 293L21.5383 273.416H16.7863V293H6.70628V242.744H25.5703C29.4583 242.744 32.7703 243.44 35.5063 244.832C38.2423 246.176 40.2823 248.024 41.6263 250.376C43.0183 252.68 43.7143 255.272 43.7143 258.152C43.7143 261.464 42.7543 264.464 40.8343 267.152C38.9143 269.792 36.0583 271.616 32.2663 272.624L44.2903 293H32.6263ZM16.7863 265.856H25.2103C27.9463 265.856 29.9863 265.208 31.3303 263.912C32.6743 262.568 33.3463 260.72 33.3463 258.368C33.3463 256.064 32.6743 254.288 31.3303 253.04C29.9863 251.744 27.9463 251.096 25.2103 251.096H16.7863V265.856ZM70.3993 242.744C75.6793 242.744 80.3113 243.776 84.2953 245.84C88.3273 247.904 91.4233 250.856 93.5833 254.696C95.7913 258.488 96.8953 262.904 96.8953 267.944C96.8953 272.984 95.7913 277.4 93.5833 281.192C91.4233 284.936 88.3273 287.84 84.2953 289.904C80.3113 291.968 75.6793 293 70.3993 293H52.8313V242.744H70.3993ZM70.0393 284.432C75.3193 284.432 79.3993 282.992 82.2793 280.112C85.1593 277.232 86.5993 273.176 86.5993 267.944C86.5993 262.712 85.1593 258.632 82.2793 255.704C79.3993 252.728 75.3193 251.24 70.0393 251.24H62.9113V284.432H70.0393ZM149.585 242.744L131.153 293H118.913L100.481 242.744H111.281L125.105 282.704L138.857 242.744H149.585ZM160.092 293.504C158.268 293.504 156.756 292.952 155.556 291.848C154.404 290.696 153.828 289.28 153.828 287.6C153.828 285.92 154.404 284.528 155.556 283.424C156.756 282.272 158.268 281.696 160.092 281.696C161.868 281.696 163.332 282.272 164.484 283.424C165.636 284.528 166.212 285.92 166.212 287.6C166.212 289.28 165.636 290.696 164.484 291.848C163.332 292.952 161.868 293.504 160.092 293.504ZM191.899 242.744C197.179 242.744 201.811 243.776 205.795 245.84C209.827 247.904 212.923 250.856 215.083 254.696C217.291 258.488 218.395 262.904 218.395 267.944C218.395 272.984 217.291 277.4 215.083 281.192C212.923 284.936 209.827 287.84 205.795 289.904C201.811 291.968 197.179 293 191.899 293H174.331V242.744H191.899ZM191.539 284.432C196.819 284.432 200.899 282.992 203.779 280.112C206.659 277.232 208.099 273.176 208.099 267.944C208.099 262.712 206.659 258.632 203.779 255.704C200.899 252.728 196.819 251.24 191.539 251.24H184.411V284.432H191.539ZM243.653 293.648C239.813 293.648 236.357 292.808 233.285 291.128C230.213 289.4 227.789 286.976 226.013 283.856C224.285 280.736 223.421 277.136 223.421 273.056C223.421 268.976 224.309 265.376 226.085 262.256C227.909 259.136 230.381 256.736 233.501 255.056C236.621 253.328 240.101 252.464 243.941 252.464C247.781 252.464 251.261 253.328 254.381 255.056C257.501 256.736 259.949 259.136 261.725 262.256C263.549 265.376 264.461 268.976 264.461 273.056C264.461 277.136 263.525 280.736 261.653 283.856C259.829 286.976 257.333 289.4 254.165 291.128C251.045 292.808 247.541 293.648 243.653 293.648ZM243.653 284.864C245.477 284.864 247.181 284.432 248.765 283.568C250.397 282.656 251.693 281.312 252.653 279.536C253.613 277.76 254.093 275.6 254.093 273.056C254.093 269.264 253.085 266.36 251.069 264.344C249.101 262.28 246.677 261.248 243.797 261.248C240.917 261.248 238.493 262.28 236.525 264.344C234.605 266.36 233.645 269.264 233.645 273.056C233.645 276.848 234.581 279.776 236.453 281.84C238.373 283.856 240.773 284.864 243.653 284.864ZM269.263 273.056C269.263 268.928 270.103 265.328 271.783 262.256C273.463 259.136 275.791 256.736 278.767 255.056C281.743 253.328 285.151 252.464 288.991 252.464C293.935 252.464 298.015 253.712 301.231 256.208C304.495 258.656 306.679 262.112 307.783 266.576H296.911C296.335 264.848 295.351 263.504 293.959 262.544C292.615 261.536 290.935 261.032 288.919 261.032C286.039 261.032 283.759 262.088 282.079 264.2C280.399 266.264 279.559 269.216 279.559 273.056C279.559 276.848 280.399 279.8 282.079 281.912C283.759 283.976 286.039 285.008 288.919 285.008C292.999 285.008 295.663 283.184 296.911 279.536H307.783C306.679 283.856 304.495 287.288 301.231 289.832C297.967 292.376 293.887 293.648 288.991 293.648C285.151 293.648 281.743 292.808 278.767 291.128C275.791 289.4 273.463 287 271.783 283.928C270.103 280.808 269.263 277.184 269.263 273.056ZM326.903 261.392V280.688C326.903 282.032 327.215 283.016 327.839 283.64C328.511 284.216 329.615 284.504 331.151 284.504H335.831V293H329.495C320.999 293 316.751 288.872 316.751 280.616V261.392H311.999V253.112H316.751V243.248H326.903V253.112H335.831V261.392H326.903ZM380.161 272.192C380.161 273.632 380.065 274.928 379.873 276.08H350.713C350.953 278.96 351.961 281.216 353.737 282.848C355.513 284.48 357.697 285.296 360.289 285.296C364.033 285.296 366.697 283.688 368.281 280.472H379.153C378.001 284.312 375.793 287.48 372.529 289.976C369.265 292.424 365.257 293.648 360.505 293.648C356.665 293.648 353.209 292.808 350.137 291.128C347.113 289.4 344.737 286.976 343.009 283.856C341.329 280.736 340.489 277.136 340.489 273.056C340.489 268.928 341.329 265.304 343.009 262.184C344.689 259.064 347.041 256.664 350.065 254.984C353.089 253.304 356.569 252.464 360.505 252.464C364.297 252.464 367.681 253.28 370.657 254.912C373.681 256.544 376.009 258.872 377.641 261.896C379.321 264.872 380.161 268.304 380.161 272.192ZM369.721 269.312C369.673 266.72 368.737 264.656 366.913 263.12C365.089 261.536 362.857 260.744 360.217 260.744C357.721 260.744 355.609 261.512 353.881 263.048C352.201 264.536 351.169 266.624 350.785 269.312H369.721ZM425.175 253.112V293H415.023V287.96C413.727 289.688 412.023 291.056 409.911 292.064C407.847 293.024 405.591 293.504 403.143 293.504C400.023 293.504 397.263 292.856 394.863 291.56C392.463 290.216 390.567 288.272 389.175 285.728C387.831 283.136 387.159 280.064 387.159 276.512V253.112H397.239V275.072C397.239 278.24 398.031 280.688 399.615 282.416C401.199 284.096 403.359 284.936 406.095 284.936C408.879 284.936 411.063 284.096 412.647 282.416C414.231 280.688 415.023 278.24 415.023 275.072V253.112H425.175ZM445.2 259.304C446.496 257.192 448.176 255.536 450.24 254.336C452.352 253.136 454.752 252.536 457.44 252.536V263.12H454.776C451.608 263.12 449.208 263.864 447.576 265.352C445.992 266.84 445.2 269.432 445.2 273.128V293H435.12V253.112H445.2V259.304Z" fill="#0096C6"/>
<path fill-rule="evenodd" clip-rule="evenodd" d="M161.144 17.3381C124.293 42.3511 105.507 88.6164 117.709 133.894C133.16 191.215 192.424 225.228 250.081 209.87C297.194 197.32 328.65 155.693 330.155 109.62C323.635 147.432 295.711 179.916 255.988 190.497C201.571 204.993 145.64 172.89 131.061 118.794C120.819 80.7954 133.703 42.0536 161.144 17.3381" fill="#42A3AF"/>
<path fill-rule="evenodd" clip-rule="evenodd" d="M281.936 165.576C313.03 144.468 328.883 105.43 318.586 67.2233C305.548 18.8543 255.54 -9.8495 206.886 3.11278C167.132 13.7013 140.589 48.8264 139.32 87.7059C144.82 55.7973 168.382 28.3872 201.902 19.4599C247.821 7.22813 295.016 34.3152 307.32 79.9643C315.962 112.03 305.089 144.721 281.936 165.576Z" fill="#0096C6"/>
<path fill-rule="evenodd" clip-rule="evenodd" d="M180.504 114.655L188.267 86.0426H195.085L208.532 135.742L213.637 117.292L216.862 114.655H229.74L237.499 86.0426H244.315L252.081 114.655H274.421C275.934 109.572 276.885 104.301 276.885 98.846C276.885 78.519 260.974 61.9464 241.478 61.9464C231.252 61.9464 221.974 66.4641 215.534 73.8119C208.911 66.4641 199.625 61.9464 189.403 61.9464C169.902 61.9464 153.806 78.519 153.806 98.846C153.806 104.301 154.939 109.572 156.456 114.655H180.504" fill="#42A3AF"/>
<path fill-rule="evenodd" clip-rule="evenodd" d="M249.243 121.627H271.589C256.625 153.809 215.534 174.507 215.534 174.507C215.54 174.507 174.255 153.809 159.299 121.627H183.155L186.566 119.169L191.673 100.539L205.12 150.231H211.935L219.701 121.627H232.386L235.788 119.169L240.717 100.539L245.832 119.169L249.243 121.627Z" fill="#0096C6"/>
</svg>
