<svg width="629" height="155" viewBox="0 0 629 155" fill="none" xmlns="http://www.w3.org/2000/svg">
<path d="M200.626 100L189.538 80.416H184.786V100H174.706V49.744H193.57C197.458 49.744 200.77 50.44 203.506 51.832C206.242 53.176 208.282 55.024 209.626 57.376C211.018 59.68 211.714 62.272 211.714 65.152C211.714 68.464 210.754 71.464 208.834 74.152C206.914 76.792 204.058 78.616 200.266 79.624L212.29 100H200.626ZM184.786 72.856H193.21C195.946 72.856 197.986 72.208 199.33 70.912C200.674 69.568 201.346 67.72 201.346 65.368C201.346 63.064 200.674 61.288 199.33 60.04C197.986 58.744 195.946 58.096 193.21 58.096H184.786V72.856ZM238.399 49.744C243.679 49.744 248.311 50.776 252.295 52.84C256.327 54.904 259.423 57.856 261.583 61.696C263.791 65.488 264.895 69.904 264.895 74.944C264.895 79.984 263.791 84.4 261.583 88.192C259.423 91.936 256.327 94.84 252.295 96.904C248.311 98.968 243.679 100 238.399 100H220.831V49.744H238.399ZM238.039 91.432C243.319 91.432 247.399 89.992 250.279 87.112C253.159 84.232 254.599 80.176 254.599 74.944C254.599 69.712 253.159 65.632 250.279 62.704C247.399 59.728 243.319 58.24 238.039 58.24H230.911V91.432H238.039ZM317.585 49.744L299.153 100H286.913L268.481 49.744H279.281L293.105 89.704L306.857 49.744H317.585ZM328.092 100.504C326.268 100.504 324.756 99.952 323.556 98.848C322.404 97.696 321.828 96.28 321.828 94.6C321.828 92.92 322.404 91.528 323.556 90.424C324.756 89.272 326.268 88.696 328.092 88.696C329.868 88.696 331.332 89.272 332.484 90.424C333.636 91.528 334.212 92.92 334.212 94.6C334.212 96.28 333.636 97.696 332.484 98.848C331.332 99.952 329.868 100.504 328.092 100.504ZM359.899 49.744C365.179 49.744 369.811 50.776 373.795 52.84C377.827 54.904 380.923 57.856 383.083 61.696C385.291 65.488 386.395 69.904 386.395 74.944C386.395 79.984 385.291 84.4 383.083 88.192C380.923 91.936 377.827 94.84 373.795 96.904C369.811 98.968 365.179 100 359.899 100H342.331V49.744H359.899ZM359.539 91.432C364.819 91.432 368.899 89.992 371.779 87.112C374.659 84.232 376.099 80.176 376.099 74.944C376.099 69.712 374.659 65.632 371.779 62.704C368.899 59.728 364.819 58.24 359.539 58.24H352.411V91.432H359.539ZM411.653 100.648C407.813 100.648 404.357 99.808 401.285 98.128C398.213 96.4 395.789 93.976 394.013 90.856C392.285 87.736 391.421 84.136 391.421 80.056C391.421 75.976 392.309 72.376 394.085 69.256C395.909 66.136 398.381 63.736 401.501 62.056C404.621 60.328 408.101 59.464 411.941 59.464C415.781 59.464 419.261 60.328 422.381 62.056C425.501 63.736 427.949 66.136 429.725 69.256C431.549 72.376 432.461 75.976 432.461 80.056C432.461 84.136 431.525 87.736 429.653 90.856C427.829 93.976 425.333 96.4 422.165 98.128C419.045 99.808 415.541 100.648 411.653 100.648ZM411.653 91.864C413.477 91.864 415.181 91.432 416.765 90.568C418.397 89.656 419.693 88.312 420.653 86.536C421.613 84.76 422.093 82.6 422.093 80.056C422.093 76.264 421.085 73.36 419.069 71.344C417.101 69.28 414.677 68.248 411.797 68.248C408.917 68.248 406.493 69.28 404.525 71.344C402.605 73.36 401.645 76.264 401.645 80.056C401.645 83.848 402.581 86.776 404.453 88.84C406.373 90.856 408.773 91.864 411.653 91.864ZM437.263 80.056C437.263 75.928 438.103 72.328 439.783 69.256C441.463 66.136 443.791 63.736 446.767 62.056C449.743 60.328 453.151 59.464 456.991 59.464C461.935 59.464 466.015 60.712 469.231 63.208C472.495 65.656 474.679 69.112 475.783 73.576H464.911C464.335 71.848 463.351 70.504 461.959 69.544C460.615 68.536 458.935 68.032 456.919 68.032C454.039 68.032 451.759 69.088 450.079 71.2C448.399 73.264 447.559 76.216 447.559 80.056C447.559 83.848 448.399 86.8 450.079 88.912C451.759 90.976 454.039 92.008 456.919 92.008C460.999 92.008 463.663 90.184 464.911 86.536H475.783C474.679 90.856 472.495 94.288 469.231 96.832C465.967 99.376 461.887 100.648 456.991 100.648C453.151 100.648 449.743 99.808 446.767 98.128C443.791 96.4 441.463 94 439.783 90.928C438.103 87.808 437.263 84.184 437.263 80.056ZM494.903 68.392V87.688C494.903 89.032 495.215 90.016 495.839 90.64C496.511 91.216 497.615 91.504 499.151 91.504H503.831V100H497.495C488.999 100 484.751 95.872 484.751 87.616V68.392H479.999V60.112H484.751V50.248H494.903V60.112H503.831V68.392H494.903ZM548.161 79.192C548.161 80.632 548.065 81.928 547.873 83.08H518.713C518.953 85.96 519.961 88.216 521.737 89.848C523.513 91.48 525.697 92.296 528.289 92.296C532.033 92.296 534.697 90.688 536.281 87.472H547.153C546.001 91.312 543.793 94.48 540.529 96.976C537.265 99.424 533.257 100.648 528.505 100.648C524.665 100.648 521.209 99.808 518.137 98.128C515.113 96.4 512.737 93.976 511.009 90.856C509.329 87.736 508.489 84.136 508.489 80.056C508.489 75.928 509.329 72.304 511.009 69.184C512.689 66.064 515.041 63.664 518.065 61.984C521.089 60.304 524.569 59.464 528.505 59.464C532.297 59.464 535.681 60.28 538.657 61.912C541.681 63.544 544.009 65.872 545.641 68.896C547.321 71.872 548.161 75.304 548.161 79.192ZM537.721 76.312C537.673 73.72 536.737 71.656 534.913 70.12C533.089 68.536 530.857 67.744 528.217 67.744C525.721 67.744 523.609 68.512 521.881 70.048C520.201 71.536 519.169 73.624 518.785 76.312H537.721ZM593.175 60.112V100H583.023V94.96C581.727 96.688 580.023 98.056 577.911 99.064C575.847 100.024 573.591 100.504 571.143 100.504C568.023 100.504 565.263 99.856 562.863 98.56C560.463 97.216 558.567 95.272 557.175 92.728C555.831 90.136 555.159 87.064 555.159 83.512V60.112H565.239V82.072C565.239 85.24 566.031 87.688 567.615 89.416C569.199 91.096 571.359 91.936 574.095 91.936C576.879 91.936 579.063 91.096 580.647 89.416C582.231 87.688 583.023 85.24 583.023 82.072V60.112H593.175ZM613.2 66.304C614.496 64.192 616.176 62.536 618.24 61.336C620.352 60.136 622.752 59.536 625.44 59.536V70.12H622.776C619.608 70.12 617.208 70.864 615.576 72.352C613.992 73.84 613.2 76.432 613.2 80.128V100H603.12V60.112H613.2V66.304Z" fill="#0096C6"/>
<path fill-rule="evenodd" clip-rule="evenodd" d="M34.46 12.5481C7.5234 30.6506 -6.20803 64.1341 2.7109 96.9027C14.0049 138.387 57.3244 163.004 99.4692 151.889C133.907 142.806 156.9 112.68 158 79.3349C153.234 106.701 132.823 130.21 103.787 137.868C64.0107 148.359 23.1278 125.125 12.4706 85.9744C4.98404 58.4738 14.402 30.4353 34.46 12.5481" fill="#42A3AF"/>
<path fill-rule="evenodd" clip-rule="evenodd" d="M122.754 119.832C145.482 104.555 157.071 76.3029 149.543 48.6514C140.013 13.6454 103.46 -7.12835 67.8961 2.25281C38.8374 9.91604 19.4356 35.3371 18.5076 63.4752C22.5284 40.382 39.7513 20.5446 64.2528 14.0836C97.8173 5.2312 132.315 24.8349 141.309 57.8724C147.625 81.0789 139.678 104.738 122.754 119.832Z" fill="#0096C6"/>
<path fill-rule="evenodd" clip-rule="evenodd" d="M48.6118 82.9792L54.2861 62.2714H59.2698L69.0988 98.2405L72.8308 84.8872L75.188 82.9792H84.6012L90.2724 62.2714H95.2546L100.931 82.9792H117.261C118.367 79.3005 119.062 75.4853 119.062 71.5376C119.062 56.8264 107.431 44.8323 93.1807 44.8323C85.7059 44.8323 78.9246 48.1019 74.2172 53.4197C69.3759 48.1019 62.5884 44.8323 55.1167 44.8323C40.8621 44.8323 29.0963 56.8264 29.0963 71.5376C29.0963 75.4853 29.9246 79.3005 31.0332 82.9792H48.6118" fill="#42A3AF"/>
<path fill-rule="evenodd" clip-rule="evenodd" d="M98.8566 88.0249H115.191C104.253 111.316 74.2172 126.296 74.2172 126.296C74.2211 126.296 44.0437 111.316 33.1117 88.0249H50.5494L53.0428 86.2457L56.7756 72.7628L66.6045 108.727H71.586L77.2626 88.0249H86.5349L89.0221 86.2457L92.6249 72.7628L96.3639 86.2457L98.8566 88.0249Z" fill="#0096C6"/>
</svg>
